# xmcd
#
# Track frame offsets:
#	150
#	13575
#	27150
#	42075
#	54225
#	70425
#	81525
#	95175
#	106950
#	119250
#	133425
#	145875
#	160500
#	174150
#
# Disc length: 2493 seconds
#
# Revision: 1
# Processed by: cddbd v1.5.2PL0 Copyright (c) Steve Scherf et al.
# Submitted via: audiograbber 1.83.01
#
DISCID=bd09bb0e
DTITLE=Αθηναική Κομπανία - Χόρεψέ το θείε Τάκη
DYEAR=1900
DGENRE=Other
TTITLE0=Πήραν τα στήθια μου φωτιά
TTITLE1=Μέσα σε μια νύχτα
TTITLE2=Σκληρός χωρισμός
TTITLE3=Δυστήχησα κι εγώ
TTITLE4=Αχ γιατί δεν μ'αγαπάς
TTITLE5=Νά'μουνα το σεντονάκι
TTITLE6=Φεύγεις και μ'αφήνεις μόνο
TTITLE7=Ξημέρωσε καλή μου
TTITLE8=Οσο κι αν πίνω κι αν μεθώ
TTITLE9=Καλή τύχη
TTITLE10=Πληγωμένοι κι οι δυο
TTITLE11=Γλυκέ μου τύρανε
TTITLE12=Δεν ξέρεις την καρδιά μου
TTITLE13=Την αγάπη μου την κλέψανε
EXTD=
EXTT0=
EXTT1=
EXTT2=
EXTT3=
EXTT4=
EXTT5=
EXTT6=
EXTT7=
EXTT8=
EXTT9=
EXTT10=
EXTT11=
EXTT12=
EXTT13=
PLAYORDER=
